<svg id="Capa_1" data-name="Capa 1" xmlns="http://www.w3.org/2000/svg" viewBox="0 0 37.77 38.5"><defs><style>.cls-1{fill:#373936;}</style></defs><path class="cls-1" d="M33.88,20.88V10.24A10.25,10.25,0,0,0,23.64,0H14.38A10.26,10.26,0,0,0,4.13,10.24V20.8A5.27,5.27,0,0,0,0,25.94V38.5H10.53v-.12H27.24v.12H37.77V25.94A5.26,5.26,0,0,0,33.88,20.88ZM8,36H2.5V25.94a2.77,2.77,0,0,1,5.53,0Zm2.5-.12V29.74H27.24v6.14Zm16.71-9.94v1.3H10.53v-1.3a5.26,5.26,0,0,0-3.9-5.06V10.24A7.75,7.75,0,0,1,14.38,2.5h9.26a7.75,7.75,0,0,1,7.74,7.74V20.8A5.28,5.28,0,0,0,27.24,25.94Zm8,10.06H29.74V25.94a2.77,2.77,0,0,1,5.53,0Z"/></svg>