<svg id="Capa_1" data-name="Capa 1" xmlns="http://www.w3.org/2000/svg" viewBox="0 0 34.74 31.05"><defs><style>.cls-1{fill:#373936;}</style></defs><path class="cls-1" d="M34.22,12,18.11.24a1.26,1.26,0,0,0-1.48,0L.51,12A1.26,1.26,0,0,0,.24,13.8a1.24,1.24,0,0,0,.82.49A1.2,1.2,0,0,0,2,14.07L17.37,2.81,32.74,14.07a1.26,1.26,0,0,0,1.75-.27A1.26,1.26,0,0,0,34.22,12Z"/><path class="cls-1" d="M29.73,13.59a1.26,1.26,0,0,0-1.25,1.26V28.54H22.16V21.23a4.79,4.79,0,0,0-9.58,0v7.31H6.26V14.85a1.26,1.26,0,1,0-2.51,0V29.79A1.26,1.26,0,0,0,5,31.05h8.84a1.24,1.24,0,0,0,1.24-1.15.41.41,0,0,0,0-.11V21.23a2.28,2.28,0,0,1,4.56,0v8.66a1.26,1.26,0,0,0,1.25,1.16h8.83A1.26,1.26,0,0,0,31,29.79V14.85A1.26,1.26,0,0,0,29.73,13.59Z"/></svg>