<svg id="Capa_1" data-name="Capa 1" xmlns="http://www.w3.org/2000/svg" viewBox="0 0 40.41 40.4"><defs><style>.cls-1{fill:#373936;}</style></defs><path class="cls-1" d="M38.56,14.13l-4.35-.64a16.45,16.45,0,0,0-1.33-2.35l1.66-4.26a2.15,2.15,0,0,0-.94-2.67L27.05.31a2.15,2.15,0,0,0-2.83.54L21.51,4.41a12.65,12.65,0,0,0-2.61,0L16.18.84A2.16,2.16,0,0,0,13.37.3L6.83,4.19a2.24,2.24,0,0,0-1,2.7l1.66,4.24a14.91,14.91,0,0,0-1.34,2.36l-4.32.64A2.17,2.17,0,0,0,0,16.3v7.8a2.15,2.15,0,0,0,1.84,2.17l4.35.64a17.2,17.2,0,0,0,1.34,2.36L5.87,33.52A2.15,2.15,0,0,0,6.8,36.2l6.6,3.92a2.26,2.26,0,0,0,1.08.28,2.15,2.15,0,0,0,1.71-.85L18.9,36a16.25,16.25,0,0,0,2.61,0l2.72,3.57A2.16,2.16,0,0,0,27,40.1L28.94,39a1.19,1.19,0,0,0,.56-.75,1.23,1.23,0,0,0-.89-1.49,1.19,1.19,0,0,0-.91.13L26,37.8,23,34a1.22,1.22,0,0,0-1.13-.48,15,15,0,0,1-3.41,0,1.24,1.24,0,0,0-1.12.47l-3,3.87L8.24,34.2l1.82-4.66a1.23,1.23,0,0,0-.15-1.16,13.55,13.55,0,0,1-1.71-3,1.25,1.25,0,0,0-1-.75l-4.77-.71V16.52l4.77-.71a1.24,1.24,0,0,0,1-.76,13,13,0,0,1,1.7-3,1.25,1.25,0,0,0,.16-1.18L8.24,6.21l6.22-3.6,2.91,3.84a1.25,1.25,0,0,0,1.13.47,11.46,11.46,0,0,1,3.41,0A1.21,1.21,0,0,0,23,6.45l3.05-3.86L32.18,6.2l-1.82,4.66A1.2,1.2,0,0,0,30.51,12a13.49,13.49,0,0,1,1.71,3,1.25,1.25,0,0,0,1,.76l4.78.69v7.37l-3,.44a1.22,1.22,0,0,0-.8.48,1.2,1.2,0,0,0-.23.91,1.24,1.24,0,0,0,.49.82,1.2,1.2,0,0,0,.9.22l3.2-.48a2.17,2.17,0,0,0,1.87-2.17V16.3A2.18,2.18,0,0,0,38.56,14.13Z"/><path class="cls-1" d="M30.1,23.42a4,4,0,0,1-1.25-2.91,8.48,8.48,0,0,0-2.72-6.23,8.23,8.23,0,0,0-5.93-2.73h-.11a8.52,8.52,0,0,0-5.3,1.94,1.22,1.22,0,0,0,.14,2l4.82,2.89a4.06,4.06,0,0,1-2,2.89l-4.31-2.59a1.29,1.29,0,0,0-1.25,0,1.21,1.21,0,0,0-.64,1,8.54,8.54,0,0,0,2.34,6.45,8.67,8.67,0,0,0,6.29,2.72A7.75,7.75,0,0,0,22,28.64L32.34,39a4.67,4.67,0,0,0,3.34,1.39A4.72,4.72,0,0,0,39,32.33ZM20.19,14A5.92,5.92,0,0,1,24.35,16a6.14,6.14,0,0,1,2,4.45,6.38,6.38,0,0,0,2,4.75l8.92,8.92A2.25,2.25,0,0,1,38,35.68a2.21,2.21,0,0,1-.66,1.6,2.27,2.27,0,0,1-3.22,0L23.2,26.41a1.26,1.26,0,0,0-.87-.36,1.23,1.23,0,0,0-.35.05A6.15,6.15,0,0,1,14.28,22l2.82,1.69a1.24,1.24,0,0,0,1.18.05l.35-.18a6.54,6.54,0,0,0,3.62-5.87,1.22,1.22,0,0,0-.59-1l-3.72-2.23A6.07,6.07,0,0,1,20.13,14v-.15Z"/></svg>