<svg id="Capa_1" data-name="Capa 1" xmlns="http://www.w3.org/2000/svg" viewBox="0 0 30.65 35.46"><defs><style>.cls-1{fill:#373936;}</style></defs><path class="cls-1" d="M27.48,0H3.17A3.17,3.17,0,0,0,0,3.17V26.33a3.18,3.18,0,0,0,3.17,3.18H9.6L14.21,35a1.19,1.19,0,0,0,.92.43h0a1.22,1.22,0,0,0,.94-.46l4.33-5.49h7.06a3.18,3.18,0,0,0,3.17-3.18V3.17A3.17,3.17,0,0,0,27.48,0Zm0,27.08H19.84a1.2,1.2,0,0,0-.95.46l-3.78,4.79-4-4.81a1.2,1.2,0,0,0-.93-.44h-7a.75.75,0,0,1-.75-.75V3.17a.76.76,0,0,1,.75-.75H27.48a.76.76,0,0,1,.75.75V26.33A.75.75,0,0,1,27.48,27.08Z"/><path class="cls-1" d="M23.32,11.68,18.81,11l-2-4.1a1.18,1.18,0,0,0-1.07-.68,1.22,1.22,0,0,0-1.08.67l-2,4.08-4.52.64a1.2,1.2,0,0,0-.68,2.05l3.26,3.2-.79,4.49a1.19,1.19,0,0,0,.47,1.18,1.22,1.22,0,0,0,1.27.1l4.05-2.11,4,2.14a1.22,1.22,0,0,0,.56.14,1.27,1.27,0,0,0,.71-.22,1.2,1.2,0,0,0,.48-1.18l-.75-4.5L24,13.74a1.21,1.21,0,0,0-.66-2.06Zm-5.1,5,.46,2.73-2.44-1.3a1.26,1.26,0,0,0-.57-.14,1.18,1.18,0,0,0-.55.14l-2.45,1.27.48-2.72a1.21,1.21,0,0,0-.34-1.06l-2-1.94,2.73-.39a1.21,1.21,0,0,0,.91-.65l1.23-2.47,1.21,2.48a1.2,1.2,0,0,0,.91.66l2.73.41-2,1.92A1.22,1.22,0,0,0,18.22,16.68Z"/></svg>