<svg id="Capa_1" data-name="Capa 1" xmlns="http://www.w3.org/2000/svg" viewBox="0 0 28.99 33.71"><defs><style>.cls-1{fill:#373936;}</style></defs><path class="cls-1" d="M6.69,18.07H22.3a6.69,6.69,0,1,0,0-13.37h-12L13,2A1.17,1.17,0,0,0,13,.35a1.17,1.17,0,0,0-1.67,0L6.66,5a1.17,1.17,0,0,0,0,1.67l4.68,4.68a1.21,1.21,0,0,0,.83.34,1.23,1.23,0,0,0,.84-.34,1.2,1.2,0,0,0,0-1.68l-2.6-2.59H22.3a4.32,4.32,0,1,1,0,8.64H6.69a6.69,6.69,0,1,0,0,13.37H16.92L14.3,31.69a1.2,1.2,0,0,0,0,1.68,1.2,1.2,0,0,0,1.67,0l4.68-4.68a1.2,1.2,0,0,0,.34-.84,1.17,1.17,0,0,0-.34-.83L16,22.39a1.2,1.2,0,0,0-1.68,0,1.18,1.18,0,0,0,0,1.67L17,26.72H6.69a4.33,4.33,0,1,1,0-8.65Z"/></svg>