<svg id="Capa_1" data-name="Capa 1" xmlns="http://www.w3.org/2000/svg" viewBox="0 0 28.36 34.65"><defs><style>.cls-1{fill:#373936;}</style></defs><path class="cls-1" d="M21.07,16.34a8.5,8.5,0,0,0,1.65-5V8.54a8.54,8.54,0,0,0-17.08,0v2.78a8.5,8.5,0,0,0,1.65,5A14.15,14.15,0,0,0,0,28.73v2a3.89,3.89,0,0,0,3.89,3.89H24.47a3.89,3.89,0,0,0,3.89-3.89v-2A14.08,14.08,0,0,0,21.07,16.34ZM8.24,8.54a5.94,5.94,0,0,1,11.88,0v2.78a5.94,5.94,0,0,1-11.88,0ZM25.76,30.76a1.29,1.29,0,0,1-1.29,1.29H3.89A1.29,1.29,0,0,1,2.6,30.76v-2A11.56,11.56,0,0,1,9.23,18.26a8.5,8.5,0,0,0,9.9,0,11.52,11.52,0,0,1,6.63,10.47Z"/></svg>